<?xml version="1.0" standalone="no"?>
<!DOCTYPE svg PUBLIC "-//W3C//DTD SVG 20010904//EN"
 "http://www.w3.org/TR/2001/REC-SVG-20010904/DTD/svg10.dtd">
<svg version="1.0" xmlns="http://www.w3.org/2000/svg"
 width="300.000000pt" height="300.000000pt" viewBox="0 0 300.000000 300.000000"
 preserveAspectRatio="xMidYMid meet">
<metadata>
Created by potrace 1.11, written by Peter Selinger 2001-2013
</metadata>
<g transform="translate(0.000000,300.000000) scale(0.100000,-0.100000)"
fill="#000000" stroke="none">
<path d="M0 1500 l0 -1500 1500 0 1500 0 0 1500 0 1500 -1500 0 -1500 0 0
-1500z m2990 0 l0 -1490 -1490 0 -1490 0 0 1490 0 1490 1490 0 1490 0 0 -1490z"/>
<path d="M1195 2909 c-141 -12 -291 -36 -425 -70 -302 -76 -466 -182 -486
-315 -11 -73 0 -235 18 -270 55 -103 238 -199 493 -259 416 -98 964 -98 1380
0 255 60 438 156 493 259 18 35 29 197 18 270 -24 159 -269 287 -680 356 -232
38 -556 50 -811 29z"/>
<path d="M282 1833 c3 -113 8 -155 20 -179 55 -103 238 -199 493 -259 416 -98
964 -98 1380 0 255 60 437 156 493 259 13 24 17 65 20 179 2 81 2 147 0 147
-3 0 -51 -24 -109 -54 -259 -135 -617 -200 -1094 -200 -477 0 -835 65 -1094
200 -58 30 -106 54 -108 54 -2 0 -3 -66 -1 -147z"/>
<path d="M282 1233 c3 -114 7 -155 20 -179 56 -103 238 -199 493 -259 416 -98
964 -98 1380 0 255 60 437 156 493 259 13 24 17 65 20 179 2 81 1 147 -1 147
-2 0 -50 -24 -108 -54 -259 -135 -617 -200 -1094 -200 -477 0 -835 65 -1094
200 -58 30 -106 54 -109 54 -2 0 -2 -66 0 -147z"/>
<path d="M283 633 c2 -117 6 -155 19 -179 57 -104 238 -199 493 -259 416 -98
964 -98 1380 0 255 60 437 156 493 259 13 24 17 65 20 179 2 81 2 147 -1 147
-2 0 -50 -24 -108 -54 -259 -135 -617 -200 -1094 -200 -477 0 -835 65 -1094
200 -58 30 -106 54 -108 54 -1 0 -2 -66 0 -147z"/>
</g>
</svg>
